<?xml version="1.0" standalone="no"?>
<!DOCTYPE svg PUBLIC "-//W3C//DTD SVG 1.1//EN" "http://www.w3.org/Graphics/SVG/1.1/DTD/svg11.dtd" >
<svg xmlns="http://www.w3.org/2000/svg">
<metadata>Generated by IcoMoon</metadata>
<defs>
<font id="icomoon" horiz-adv-x="1024">
<font-face units-per-em="1024" ascent="960" descent="-64" />
<missing-glyph horiz-adv-x="1024" />
<glyph unicode="&#x20;" horiz-adv-x="512" d="" />
<glyph unicode="&#xe900;" glyph-name="aieicons-addline-25" d="M603.2 353.6v-417.6h-179.2v417.6h-424v187.2h425.6v419.2h179.2v-417.6h420.8v-187.2h-422.4z" />
<glyph unicode="&#xe901;" glyph-name="aieicons-bookappointmenticon-15" d="M756.8 304c8-6.4 14.4-12.8 20.8-19.2 78.4-76.8 156.8-153.6 235.2-230.4 14.4-14.4 14.4-25.6 0-40-24-24-48-48-72-70.4-12.8-12.8-25.6-12.8-38.4 0-81.6 80-163.2 160-244.8 238.4-3.2 3.2-6.4 6.4-11.2 9.6-3.2-3.2-4.8-6.4-8-9.6-35.2-38.4-70.4-76.8-105.6-115.2-16-17.6-33.6-14.4-43.2 8-88 203.2-177.6 408-265.6 612.8-3.2 6.4-4.8 14.4-3.2 20.8 3.2 14.4 17.6 19.2 33.6 12.8 46.4-19.2 92.8-40 139.2-57.6 161.6-67.2 323.2-136 484.8-203.2 25.6-11.2 27.2-27.2 8-44.8-40-35.2-80-68.8-120-104-1.6-3.2-4.8-4.8-9.6-8zM286.4 660.8c80-182.4 156.8-360 235.2-539.2 4.8 4.8 8 8 11.2 11.2 32 35.2 62.4 68.8 92.8 102.4 14.4 16 27.2 17.6 43.2 1.6 81.6-78.4 161.6-158.4 241.6-236.8 3.2-3.2 6.4-6.4 11.2-9.6 16 16 30.4 32 46.4 48-4.8 3.2-8 8-12.8 11.2-81.6 80-161.6 158.4-243.2 238.4-14.4 14.4-14.4 25.6 1.6 40 17.6 14.4 35.2 28.8 52.8 44.8 22.4 20.8 46.4 40 70.4 62.4-184 72-364.8 148.8-550.4 225.6zM44.8 708.8c0-113.6 89.6-204.8 201.6-209.6 19.2-1.6 30.4-9.6 30.4-22.4-1.6-14.4-11.2-20.8-32-20.8-115.2 1.6-222.4 92.8-240 206.4-24 137.6 62.4 264 201.6 292.8 137.6 27.2 275.2-67.2 299.2-203.2 3.2-14.4 3.2-27.2 4.8-41.6s-9.6-24-22.4-24-22.4 9.6-22.4 22.4c-1.6 64-25.6 116.8-75.2 158.4-64 52.8-137.6 65.6-214.4 33.6s-118.4-92.8-128-174.4c-3.2-8-3.2-14.4-3.2-17.6z" />
<glyph unicode="&#xe902;" glyph-name="aieicons-calendar-24" d="M0.41 18.33c0 257.229 0 512.819 0 770.048 0 1.638 1.638 1.638 1.638 2.867 6.144 39.731 40.55 70.861 80.691 72.499 45.056 0 91.341 0 136.397 0 1.638 0 4.506 0 6.144 0 0 2.867 0 4.506 0 5.734 0 19.251 0 38.502 0 57.754 0 14.746 9.011 24.986 22.528 29.491 1.638 0 1.638 0 2.867 1.638 4.506 0 7.373 0 11.878 0 20.89-9.011 25.395-14.746 25.395-38.502 0-17.613 0-33.997 0-51.61 0-1.638 0-2.867 0-5.734 64.307 0 128.614 0 192.922 0 0 1.638 0 4.506 0 5.734 0 19.251 0 38.502 0 57.754 0 14.746 9.011 24.986 22.528 29.491 1.638 0 1.638 0 2.867 1.638 4.506 0 7.373 0 11.878 0 20.89-9.011 25.395-14.746 25.395-38.502 0-17.613 0-33.997 0-51.61 0-1.638 0-2.867 0-5.734 64.307 0 128.614 0 192.922 0 0 1.638 0 4.506 0 5.734 0 19.251 0 38.502 0 57.754 0 11.878 6.144 20.89 16.384 26.624 2.867 1.638 6.144 2.867 9.011 2.867 4.506 0 7.373 0 11.878 0 20.89-9.011 25.395-14.746 25.395-38.502 0-17.613 0-33.997 0-51.61 0-1.638 0-2.867 0-5.734 2.867 0 4.506 0 6.144 0 43.418 0 86.835 0 130.253 0 45.056 0 74.957-28.262 83.968-58.982 1.638-5.734 2.867-10.24 4.506-16.384 0-257.229 0-512.819 0-770.048 0-1.638 0-2.867-1.638-2.867-2.867-10.24-6.144-20.89-10.65-29.491-16.384-28.262-43.418-43.008-76.186-43.008-284.262 0-567.296 0-851.968 0-1.638 0-1.638 0-2.867 0-36.045 1.638-61.44 17.613-77.824 50.381 2.048 12.288 0.41 21.299-2.458 30.31zM226.099 798.618c-1.638 0-2.867 0-4.506 0-43.418 0-88.474 0-131.891 0-2.867 0-4.506 0-7.373 0-9.011-1.638-15.155-9.011-16.384-17.613 0-2.867 0-5.734 0-7.373 0-246.989 0-493.568 0-740.557 0-2.867 0-5.734 0-7.373 1.638-9.011 7.373-16.384 18.022-17.613 2.867 0 6.144 0 9.011 0 281.395 0 564.429 0 845.824 0 2.867 0 6.144 0 9.011 0 7.373 1.638 15.155 5.734 16.384 14.746 1.638 2.867 1.638 7.373 1.638 10.24 0 246.989 0 495.206 0 742.195 0 2.867 0 5.734-1.638 9.011-2.867 10.24-10.65 16.384-23.757 16.384-43.418 0-86.835 0-130.253 0-1.638 0-2.867 0-6.144 0 0-1.638 0-4.506 0-5.734 0-19.251 0-38.502 0-57.754s-13.517-31.13-32.768-31.13c-18.022 0-31.539 13.107-31.539 32.358s0 38.502 0 57.754c0 1.638 0 2.867 0 5.734-64.307 0-128.614 0-192.922 0 0-1.638 0-4.506 0-5.734 0-19.251 0-38.502 0-57.754s-13.517-31.13-32.768-31.13c-18.022 0-31.539 13.107-31.539 32.358s0 38.502 0 57.754c0 1.638 0 2.867 0 5.734-64.307 0-128.614 0-192.922 0 0-2.867 0-4.506 0-5.734 0-20.89 0-39.731 0-60.621 0-14.746-11.878-26.624-27.034-28.262-16.384-1.638-31.539 7.373-34.406 22.118-1.638 2.867-1.638 7.373-1.638 10.24-0.41 16.384-0.41 37.274-0.41 57.754zM578.355 164.557c-43.418 0-85.197 0-127.386 0 0 31.13 0 63.488 0 94.618 41.779 0 85.197 0 127.386 0 0-31.13 0-62.259 0-94.618zM450.97 418.918c41.779 0 85.197 0 127.386 0 0-31.13 0-63.488 0-94.618-41.779 0-85.197 0-127.386 0 0 30.72 0 61.85 0 94.618zM578.355 482.406c-43.418 0-85.197 0-127.386 0 0 31.13 0 63.488 0 94.618 41.779 0 85.197 0 127.386 0 0-31.13 0-63.488 0-94.618zM675.43 577.024c41.779 0 85.197 0 127.386 0 0-31.13 0-62.259 0-94.618-41.779 0-85.197 0-127.386 0 0 31.13 0 63.488 0 94.618zM226.099 418.918c43.418 0 85.197 0 127.386 0 0-31.13 0-63.488 0-94.618-41.779 0-85.197 0-127.386 0 0 30.72 0 61.85 0 94.618zM675.43 418.918c43.418 0 85.197 0 127.386 0 0-31.13 0-63.488 0-94.618-41.779 0-85.197 0-127.386 0 0 30.72 0 61.85 0 94.618zM226.099 577.024c43.418 0 85.197 0 127.386 0 0-31.13 0-63.488 0-94.618-41.779 0-85.197 0-127.386 0 0 31.13 0 63.488 0 94.618zM353.894 164.557c-43.418 0-85.197 0-127.386 0 0 31.13 0 63.488 0 94.618 41.779 0 85.197 0 127.386 0 0-31.13 0-62.259 0-94.618zM675.43 164.557c0 31.13 0 62.259 0 94.618 41.779 0 85.197 0 127.386 0 0-31.13 0-62.259 0-94.618-41.779 0-83.968 0-127.386 0z" />
<glyph unicode="&#xe903;" glyph-name="aieicons-check-16" d="M946.176 841.216c28.262-29.901 54.886-56.525 79.462-81.101-234.701-235.11-469.402-470.221-704.102-705.331-105.677 106.086-215.45 215.45-322.765 323.584 24.576 24.576 51.2 51.2 77.824 77.824 77.824-77.824 158.925-158.925 241.664-242.074 213.402 211.763 421.478 420.25 627.917 627.098z" />
<glyph unicode="&#xe904;" glyph-name="aieicons-chemoverhaul-02" d="M1.6 126.4c0 9.6 4.8 16 12.8 20.8 49.6 32 99.2 65.6 147.2 97.6 25.6 17.6 51.2 33.6 76.8 51.2 4.8 3.2 6.4 6.4 6.4 12.8 0 92.8 0 184 0 276.8 0 6.4-3.2 9.6-8 11.2-75.2 43.2-148.8 84.8-222.4 126.4-9.6 4.8-14.4 11.2-14.4 22.4 1.6 14.4 14.4 24 28.8 19.2 3.2-1.6 6.4-3.2 11.2-4.8 70.4-40 142.4-81.6 212.8-121.6 6.4-3.2 11.2-3.2 17.6 0 81.6 49.6 164.8 99.2 246.4 150.4 12.8 8 24 8 36.8 0 80-49.6 160-97.6 240-145.6 6.4-4.8 11.2-3.2 19.2 0 57.6 38.4 115.2 76.8 171.2 113.6 6.4 3.2 12.8 8 20.8 8 9.6 0 17.6-6.4 19.2-16s0-19.2-9.6-25.6c-17.6-11.2-35.2-24-52.8-35.2-43.2-28.8-86.4-57.6-129.6-84.8-6.4-3.2-8-9.6-8-16 0-99.2 0-196.8 0-296 0-12.8-4.8-22.4-16-28.8-86.4-51.2-171.2-104-257.6-155.2-11.2-6.4-20.8-6.4-33.6 0-80 49.6-161.6 97.6-241.6 147.2-6.4 3.2-11.2 3.2-17.6 0-73.6-48-145.6-97.6-219.2-145.6-8-4.8-16-9.6-25.6-4.8-4.8 4.8-9.6 12.8-11.2 22.4zM291.2 451.2c0-46.4 0-94.4 0-140.8 0-6.4 1.6-9.6 8-12.8 76.8-46.4 153.6-92.8 230.4-139.2 6.4-3.2 9.6-3.2 16 0 76.8 46.4 153.6 92.8 230.4 139.2 4.8 3.2 8 6.4 8 12.8 0 94.4 0 187.2 0 281.6 0 6.4-1.6 9.6-6.4 12.8-76.8 46.4-153.6 92.8-230.4 139.2-4.8 3.2-9.6 3.2-14.4 0-76.8-46.4-153.6-92.8-230.4-139.2-6.4-3.2-8-8-8-14.4-3.2-46.4-3.2-92.8-3.2-139.2zM692.8 440c0 28.8 0 57.6 0 84.8 0 16 11.2 27.2 27.2 24 11.2-1.6 17.6-9.6 17.6-22.4 0-59.2 0-118.4 0-177.6 0-12.8-9.6-22.4-22.4-22.4s-22.4 9.6-22.4 24c-1.6 30.4 0 59.2 0 89.6z" />
<glyph unicode="&#xe905;" glyph-name="aieicons-contact-18" d="M382.4 243.2c96 123.2 188.8 246.4 272 376-28.8 12.8-56 24-81.6 46.4-9.6 8-17.6 17.6-27.2 27.2-4.8 8-8 14.4-4.8 24 27.2 78.4 64 155.2 113.6 224 12.8 19.2 28.8 19.2 46.4 17.6 83.2-24 155.2-72 203.2-145.6 14.4-22.4 24-46.4 27.2-73.6 3.2-12.8-3.2-24-4.8-36.8-9.6-40-24-78.4-46.4-115.2-78.4-152-169.6-294.4-283.2-427.2-54.4-64-115.2-123.2-179.2-179.2-9.6-8-19.2-14.4-28.8-19.2-32-19.2-65.6-28.8-105.6-19.2-92.8 24-164.8 76.8-211.2 161.6-12.8 19.2-12.8 22.4 4.8 41.6 41.6 49.6 83.2 100.8 134.4 142.4 14.4 12.8 28.8 22.4 46.4 33.6 9.6 8 17.6 4.8 28.8 0 36.8-20.8 72-43.2 96-78.4zM326.4-27.2c3.2 0 4.8 0 9.6 3.2 27.2 4.8 49.6 19.2 68.8 36.8 68.8 60.8 132.8 124.8 192 196.8 91.2 108.8 164.8 225.6 230.4 348.8 24 44.8 44.8 88 60.8 134.4 12.8 36.8 8 68.8-12.8 97.6-3.2 4.8-4.8 9.6-8 12.8-41.6 59.2-100.8 96-169.6 115.2-8 3.2-12.8 0-17.6-8-44.8-59.2-76.8-124.8-97.6-193.6-3.2-8-3.2-12.8 4.8-17.6 27.2-27.2 59.2-44.8 96-54.4 22.4-4.8 27.2-17.6 12.8-36.8-54.4-78.4-105.6-155.2-161.6-233.6-44.8-60.8-91.2-120-137.6-179.2-12.8-12.8-27.2-14.4-32 0-17.6 32-44.8 54.4-76.8 76.8-12.8 8-17.6 4.8-28.8-3.2-59.2-41.6-102.4-96-150.4-152-3.2-3.2-3.2-9.6 0-12.8 14.4-28.8 36.8-51.2 60.8-72 44.8-32 94.4-52.8 156.8-59.2z" />
<glyph unicode="&#xe906;" glyph-name="aieicons-doneicon-09" d="M1003.2 657.6c-9.6-11.2-20.8-24-33.6-35.2-171.2-171.2-337.6-337.6-508.8-508.8-62.4-62.4-89.6-59.2-152 0-86.4 86.4-176 176-262.4 262.4-57.6 57.6-59.2 120-14.4 168 48 51.2 113.6 48 171.2-11.2 59.2-59.2 116.8-120 179.2-185.6 147.2 147.2 281.6 281.6 419.2 419.2 14.4 14.4 30.4 30.4 44.8 41.6 44.8 33.6 107.2 27.2 144-11.2 40-36.8 44.8-91.2 12.8-139.2z" />
<glyph unicode="&#xe907;" glyph-name="aieicons-downbutton-08" d="M1025.6 692.8c-17.6 20.8-36.8 40-60.8 67.2-148.8-161.6-296-316.8-451.2-481.6-152 161.6-300.8 320-451.2 478.4-24-24-40-43.2-60.8-67.2 168-182.4 337.6-360 512-548.8 171.2 188.8 339.2 366.4 512 552z" />
<glyph unicode="&#xe908;" glyph-name="aieicons-editbutton-27" d="M953.6 960c-16 0-30.4-6.4-41.6-17.6-134.4-134.4-270.4-270.4-404.8-406.4-3.2-3.2-8-9.6-9.6-14.4-16-38.4-32-73.6-48-112-3.2-8-3.2-14.4 3.2-20.8 6.4-8 14.4-6.4 22.4-3.2 38.4 16 73.6 32 112 48 4.8 3.2 9.6 4.8 12.8 9.6 136 136 272 270.4 408 408 6.4 6.4 12.8 14.4 14.4 24 11.2 40-24 84.8-68.8 84.8zM11.2-64c-9.6 6.4-11.2 14.4-11.2 25.6 0 292.8 0 584 0 876.8 0 20.8 4.8 25.6 27.2 25.6 225.6 0 451.2 0 676.8 0 14.4 0 22.4-6.4 22.4-16 0-11.2-8-16-22.4-16-217.6 0-436.8 0-654.4 0-4.8 0-9.6 0-14.4 0 0-286.4 0-571.2 0-857.6 262.4 0 524.8 0 788.8 0 0 3.2 0 6.4 0 9.6 0 168 0 336 0 504 0 3.2 0 8 0 9.6 1.6 9.6 8 14.4 16 14.4 9.6 0 14.4-4.8 16-14.4 0-3.2 0-4.8 0-8 0-176 0-352 0-526.4 0-9.6-3.2-19.2-11.2-25.6-276.8-1.6-555.2-1.6-833.6-1.6zM953.6 960c44.8 0 80-44.8 67.2-86.4-3.2-9.6-9.6-17.6-14.4-24-136-136-270.4-272-408-408-3.2-3.2-8-6.4-12.8-9.6-38.4-16-73.6-32-112-48-9.6-3.2-16-4.8-22.4 3.2-6.4 6.4-4.8 14.4-3.2 20.8 16 38.4 32 73.6 48 112 3.2 4.8 4.8 9.6 9.6 14.4 134.4 134.4 270.4 270.4 404.8 406.4 12.8 12.8 25.6 19.2 43.2 19.2zM496 435.2c1.6 0 1.6-1.6 3.2-1.6 20.8 9.6 41.6 17.6 62.4 27.2 8 3.2 16 9.6 22.4 14.4 108.8 108.8 217.6 217.6 326.4 326.4 3.2 3.2 8 4.8 9.6 6.4-17.6 17.6-32 32-46.4 46.4-1.6-1.6-3.2-3.2-4.8-4.8-110.4-110.4-222.4-222.4-332.8-332.8-3.2-3.2-6.4-4.8-8-9.6-9.6-24-20.8-48-32-72zM945.6 836.8c12.8 12.8 27.2 27.2 38.4 38.4 9.6 9.6 9.6 20.8 3.2 32-11.2 16-25.6 24-38.4 19.2-3.2-1.6-3.2-1.6-4.8-3.2-14.4-14.4-27.2-28.8-41.6-43.2 12.8-14.4 27.2-27.2 43.2-43.2zM496 435.2c9.6 24 20.8 48 32 72 1.6 3.2 4.8 6.4 8 9.6 110.4 110.4 222.4 222.4 332.8 332.8 3.2 3.2 3.2 3.2 4.8 4.8 14.4-14.4 28.8-28.8 46.4-46.4-3.2-1.6-8-3.2-9.6-6.4-108.8-108.8-217.6-217.6-326.4-326.4-6.4-6.4-14.4-11.2-22.4-14.4-20.8-9.6-41.6-17.6-62.4-27.2-1.6 0-1.6 1.6-3.2 1.6zM945.6 836.8c-14.4 14.4-28.8 28.8-43.2 43.2 14.4 14.4 27.2 28.8 41.6 43.2 1.6 1.6 3.2 3.2 4.8 3.2 11.2 4.8 27.2-3.2 38.4-19.2 8-11.2 8-20.8-3.2-32-12.8-12.8-25.6-25.6-38.4-38.4z" />
<glyph unicode="&#xe909;" glyph-name="aieicons-email-19" d="M694.4 291.2c-60.8-75.2-137.6-118.4-233.6-108.8-64 8-120 38.4-161.6 89.6-96 110.4-88 268.8 12.8 371.2 97.6 100.8 270.4 113.6 382.4-30.4 0 12.8 0 20.8 0 28.8 0 33.6 8 46.4 27.2 46.4s24-12.8 24-46.4c0-108.8 0-216 0-328 0-64 22.4-83.2 86.4-76.8 49.6 4.8 83.2 36.8 105.6 76.8 28.8 49.6 36.8 105.6 36.8 163.2-4.8 121.6-44.8 227.2-129.6 308.8-72 64-155.2 100.8-246.4 113.6-78.4 12.8-155.2 12.8-230.4-9.6-169.6-49.6-292.8-201.6-312-382.4-27.2-244.8 113.6-454.4 340.8-505.6 102.4-24 203.2-8 294.4 43.2 4.8 3.2 9.6 4.8 14.4 8 12.8 4.8 28.8 3.2 33.6-12.8 4.8-12.8 4.8-28.8-9.6-36.8-19.2-12.8-41.6-24-64-33.6-294.4-121.6-619.2 80-664 404.8-36.8 270.4 147.2 536 403.2 576 160 25.6 312-4.8 444.8-108.8 152-118.4 211.2-337.6 145.6-515.2-17.6-41.6-36.8-83.2-73.6-108.8-46.4-38.4-96-49.6-152-33.6-41.6 12.8-68.8 38.4-76.8 84.8 4.8 9.6 4.8 14.4 1.6 22.4zM694.4 451.2c4.8 108.8-73.6 214.4-203.2 216-118.4 0-206.4-92.8-206.4-216 0-121.6 88-214.4 206.4-214.4s203.2 89.6 203.2 214.4z" />
<glyph unicode="&#xe90a;" glyph-name="aieicons-enquiryicon-13" d="M252.8 747.2c11.2 139.2 113.6 212.8 260.8 212.8 142.4 0 257.6-73.6 257.6-224 0-257.6-241.6-235.2-241.6-481.6h-28.8c0 260.8 241.6 238.4 241.6 484.8 0 132.8-96 195.2-227.2 195.2-132.8 0-220.8-62.4-227.2-187.2h-35.2zM542.4-24c0-22.4-17.6-40-40-40s-40 17.6-40 40c0 22.4 17.6 40 40 40 25.6-3.2 40-20.8 40-40z" />
<glyph unicode="&#xe90b;" glyph-name="aieicons-fb-21" d="M750.4 950.4c0-6.4 0-9.6 0-12.8 0-49.6 0-102.4 0-152 0-9.6-3.2-9.6-9.6-9.6-27.2 0-56 0-86.4 0-9.6 0-19.2-3.2-27.2-3.2-19.2-3.2-30.4-19.2-30.4-36.8-3.2-36.8-3.2-73.6-3.2-112 0-6.4 6.4-6.4 9.6-6.4 46.4 0 92.8 0 139.2 0 3.2 0 6.4 0 9.6 0-6.4-59.2-12.8-115.2-19.2-172.8-46.4 0-92.8 0-139.2 0 0-169.6 0-340.8 0-510.4-65.6 0-126.4 0-192 0 0 169.6 0 340.8 0 510.4-43.2 0-83.2 0-126.4 0 0 3.2 0 6.4 0 9.6 0 52.8 0 105.6 0 161.6 0 6.4 3.2 9.6 9.6 9.6 33.6 0 70.4 0 108.8 0 12.8 0 12.8 0 12.8 12.8 0 46.4 0 92.8 3.2 139.2 3.2 33.6 9.6 68.8 24 99.2 16 33.6 46.4 56 80 68.8 22.4 6.4 43.2 9.6 62.4 12.8 3.2 0 6.4 3.2 9.6 3.2 52.8-1.6 112-1.6 164.8-11.2z" />
<glyph unicode="&#xe90c;" glyph-name="aieicons-generalservice-01" d="M473.6 433.6c-6.4-6.4-11.2-11.2-14.4-16-99.2-99.2-198.4-200-297.6-299.2-16-16-17.6-24-8-32 14.4-12.8 24 0 32 9.6 99.2 99.2 198.4 200 297.6 299.2 3.2 3.2 8 8 14.4 14.4 0-8 0-14.4 0-19.2 0-56-1.6-112 0-169.6 0-17.6-4.8-30.4-17.6-43.2-41.6-40-83.2-83.2-124.8-124.8-8-8-14.4-17.6-4.8-27.2s19.2-4.8 27.2 3.2c3.2 3.2 4.8 4.8 8 8 32 32 64 64 97.6 97.6 3.2 3.2 8 6.4 14.4 12.8 0-8 0-14.4 0-19.2 0-56 0-113.6 0-171.2 0-12.8 3.2-22.4 16-22.4 14.4 0 16 11.2 16 22.4 0 56 0 113.6 0 171.2 0 4.8 0 9.6 0 16 1.6 0 3.2 1.6 4.8 1.6 6.4-8 14.4-16 20.8-24 30.4-30.4 60.8-60.8 91.2-91.2 8-8 17.6-16 28.8-6.4 12.8 11.2 3.2 20.8-6.4 30.4-1.6 1.6-4.8 4.8-6.4 6.4-40 40-80 81.6-121.6 120-8 8-12.8 16-12.8 27.2 0 59.2 0 118.4 0 179.2 0 4.8 0 9.6 0 19.2 6.4-6.4 11.2-9.6 14.4-14.4 100.8-100.8 201.6-203.2 300.8-302.4 8-8 17.6-16 28.8-4.8s3.2 20.8-4.8 28.8c-1.6 1.6-4.8 4.8-6.4 6.4-99.2 99.2-196.8 198.4-296 297.6-3.2 3.2-8 8-12.8 14.4 68.8 0 132.8 0 196.8 0 11.2 0 17.6-3.2 25.6-11.2 41.6-43.2 84.8-84.8 128-128 3.2-3.2 6.4-8 11.2-9.6 6.4-1.6 16-1.6 19.2 1.6 3.2 4.8 4.8 12.8 3.2 19.2 0 4.8-6.4 8-9.6 11.2-33.6 33.6-68.8 68.8-102.4 102.4-3.2 3.2-6.4 6.4-9.6 11.2 8 0 14.4 0 19.2 0 52.8 0 107.2 0 160 0 3.2 0 8 0 11.2 0 11.2 0 19.2 4.8 20.8 16 0 12.8-9.6 17.6-20.8 17.6-57.6 0-115.2 0-172.8 0-4.8 0-9.6 0-19.2 1.6 11.2 11.2 20.8 19.2 28.8 28.8 30.4 30.4 60.8 60.8 91.2 91.2 8 8 9.6 17.6 1.6 25.6s-16 4.8-24-1.6c-3.2-3.2-4.8-4.8-8-8-43.2-43.2-84.8-84.8-128-128-4.8-4.8-14.4-8-20.8-8-62.4 0-123.2 0-185.6 0-3.2 0-8 0-14.4 1.6 48 48 94.4 94.4 140.8 140.8 57.6 57.6 115.2 115.2 172.8 174.4 8 8 17.6 17.6 6.4 28.8-11.2 12.8-20.8 3.2-30.4-6.4-3.2-3.2-4.8-4.8-8-8-97.6-97.6-195.2-196.8-292.8-294.4-3.2-3.2-8-8-14.4-12.8 0 70.4 0 137.6 0 206.4 0 4.8 4.8 11.2 9.6 16 41.6 43.2 84.8 84.8 126.4 126.4 3.2 3.2 9.6 6.4 11.2 11.2 1.6 6.4 3.2 17.6-1.6 20.8-3.2 3.2-14.4 3.2-20.8 1.6-4.8 0-6.4-6.4-11.2-9.6-33.6-33.6-67.2-67.2-100.8-102.4-3.2-3.2-6.4-6.4-12.8-11.2 0 64 0 124.8 0 188.8 0 11.2-1.6 22.4-16 24-14.4 0-17.6-11.2-17.6-24 0-57.6 0-113.6 0-172.8 0-4.8 0-9.6-1.6-16-32 32-60.8 62.4-91.2 91.2-9.6 9.6-19.2 19.2-30.4 28.8-8 8-16 8-24 1.6-8-8-6.4-16 1.6-24 3.2-3.2 4.8-4.8 8-8 41.6-41.6 84.8-84.8 126.4-126.4 4.8-6.4 9.6-16 9.6-24 1.6-60.8 0-121.6 0-184 0-4.8 0-9.6-1.6-12.8-1.6-1.6-3.2-1.6-4.8-3.2-3.2 4.8-6.4 9.6-9.6 14.4-99.2 100.8-198.4 201.6-297.6 300.8-16 16-25.6 19.2-33.6 9.6-11.2-14.4 1.6-24 9.6-32 99.2-99.2 198.4-200 297.6-299.2 3.2-3.2 8-8 12.8-14.4-52.8 0-102.4 3.2-152-1.6-43.2-3.2-75.2 9.6-102.4 43.2-32 36.8-67.2 68.8-100.8 102.4-8 8-16 11.2-25.6 3.2-8-8-6.4-17.6 1.6-25.6 3.2-3.2 6.4-6.4 9.6-9.6 33.6-33.6 65.6-65.6 99.2-99.2 3.2-3.2 6.4-6.4 11.2-12.8-17.6 0-32 0-46.4 0-48 0-97.6 0-145.6 0-11.2 0-19.2-4.8-19.2-17.6 0-11.2 8-16 19.2-16 3.2 0 8 0 11.2 0 54.4 0 110.4 0 164.8 0 4.8 0 9.6 0 16-1.6-4.8-4.8-6.4-8-9.6-9.6-35.2-35.2-68.8-68.8-104-104-3.2-3.2-9.6-8-9.6-12.8-1.6-6.4-1.6-16 3.2-19.2s12.8-3.2 19.2-1.6c3.2 0 8 6.4 11.2 9.6 43.2 43.2 86.4 86.4 129.6 128 4.8 4.8 11.2 9.6 17.6 9.6 72 3.2 137.6 3.2 209.6 3.2z" />
<glyph unicode="&#xe90d;" glyph-name="aieicons-ig-22" d="M0 444.8c0 131.2 0 262.4 0 393.6 0 57.6 41.6 108.8 96 118.4 6.4 3.2 12.8 3.2 22.4 3.2 262.4 0 526.4 0 788.8 0 60.8 0 112-44.8 118.4-105.6 0-3.2 0-6.4 0-9.6 0-265.6 0-529.6 0-792 0-57.6-44.8-108.8-102.4-115.2-6.4 0-9.6 0-12.8 0-265.6 0-529.6 0-792 0-57.6 0-108.8 44.8-115.2 102.4-3.2 6.4-3.2 12.8-3.2 19.2 0 126.4 0 257.6 0 385.6zM820.8 526.4c16-67.2 12.8-128-9.6-192-25.6-64-64-112-121.6-150.4-99.2-67.2-230.4-70.4-332.8-9.6-51.2 28.8-92.8 70.4-121.6 124.8-38.4 70.4-48 147.2-25.6 227.2-28.8 0-57.6 0-89.6 0 0-3.2 0-3.2 0-6.4 0-144 0-284.8 0-428.8 0-25.6 16-41.6 41.6-41.6 236.8 0 470.4 0 708.8 0 25.6 0 41.6 16 41.6 41.6 0 144 0 284.8 0 428.8 0 3.2 0 3.2 0 6.4-33.6 0-59.2 0-91.2 0zM316.8 444.8c0-108.8 89.6-195.2 195.2-195.2 108.8 0 195.2 89.6 195.2 195.2 0 108.8-89.6 195.2-195.2 195.2-108.8 4.8-195.2-81.6-195.2-195.2zM814.4 644.8c19.2 0 41.6 0 57.6 0 22.4 0 41.6 16 41.6 41.6 0 38.4 0 76.8 0 115.2 0 22.4-16 41.6-41.6 41.6-38.4 0-76.8 0-115.2 0-22.4 0-41.6-16-41.6-41.6 0-41.6 0-76.8 0-118.4 0-22.4 16-41.6 41.6-41.6 16 3.2 32 3.2 57.6 3.2z" />
<glyph unicode="&#xe90e;" glyph-name="aieicons-installation-05" d="M1.6 491.2c8 24 25.6 33.6 49.6 36.8 30.4 3.2 60.8 9.6 91.2 14.4 8 1.6 11.2 4.8 12.8 11.2 8 24 19.2 46.4 28.8 70.4 3.2 6.4 3.2 9.6-1.6 14.4-20.8 27.2-40 54.4-59.2 83.2-16 24-14.4 43.2 4.8 64 16 16 30.4 32 46.4 46.4 17.6 17.6 38.4 19.2 59.2 4.8 28.8-19.2 56-40 84.8-60.8 4.8-3.2 9.6-4.8 16-1.6 22.4 9.6 44.8 20.8 68.8 28.8 8 3.2 11.2 6.4 12.8 14.4 4.8 33.6 11.2 65.6 16 99.2 4.8 25.6 20.8 40 46.4 40 22.4 0 44.8 0 67.2 0 24 0 41.6-14.4 44.8-38.4 4.8-33.6 11.2-67.2 16-100.8 1.6-8 4.8-11.2 11.2-12.8 24-8 46.4-19.2 70.4-28.8 6.4-3.2 9.6-3.2 14.4 1.6 27.2 19.2 54.4 40 83.2 59.2 24 17.6 43.2 14.4 64-4.8 16-16 30.4-30.4 46.4-46.4 17.6-17.6 19.2-40 4.8-59.2-19.2-28.8-40-56-60.8-84.8-4.8-6.4-3.2-9.6-1.6-17.6 9.6-22.4 19.2-44.8 28.8-67.2 3.2-8 8-12.8 16-12.8 30.4-4.8 60.8-9.6 91.2-14.4 24-3.2 40-12.8 48-35.2 0-30.4 0-60.8 0-91.2-8-22.4-24-33.6-48-35.2-30.4-3.2-60.8-9.6-91.2-14.4-8-1.6-12.8-3.2-16-12.8-8-24-17.6-46.4-28.8-68.8-3.2-6.4-3.2-9.6 1.6-14.4 20.8-28.8 40-56 60.8-84.8 14.4-20.8 12.8-43.2-4.8-60.8-16-16-30.4-30.4-46.4-46.4-17.6-17.6-40-20.8-60.8-4.8-28.8 19.2-56 40-83.2 59.2-6.4 4.8-9.6 3.2-17.6 1.6-22.4-9.6-44.8-19.2-67.2-28.8-8-3.2-12.8-8-14.4-16-4.8-30.4-11.2-60.8-14.4-91.2-3.2-24-12.8-38.4-35.2-46.4-30.4 0-60.8 0-91.2 0-20.8 8-32 22.4-35.2 44.8-4.8 32-11.2 64-16 96-1.6 6.4-3.2 9.6-11.2 12.8-24 9.6-48 19.2-70.4 28.8-6.4 3.2-9.6 3.2-14.4-1.6-28.8-20.8-56-41.6-84.8-60.8-20.8-14.4-41.6-12.8-59.2 4.8-16 16-32 32-48 48-17.6 17.6-20.8 40-4.8 60.8 19.2 28.8 40 56 59.2 83.2 4.8 6.4 3.2 9.6 1.6 17.6-9.6 22.4-19.2 44.8-28.8 68.8-3.2 8-6.4 11.2-12.8 11.2-30.4 4.8-60.8 11.2-91.2 14.4-24 3.2-41.6 12.8-49.6 36.8 1.6 24 1.6 56 1.6 86.4zM553.6 916.8c-24 0-46.4 0-68.8 0-8 0-11.2-3.2-12.8-11.2-6.4-38.4-12.8-75.2-17.6-113.6-3.2-16-6.4-20.8-22.4-24-32-8-62.4-20.8-89.6-36.8-11.2-6.4-20.8-6.4-30.4 1.6-30.4 22.4-62.4 44.8-94.4 67.2-6.4 4.8-11.2 4.8-16-1.6-12.8-14.4-27.2-27.2-41.6-41.6-6.4-4.8-6.4-9.6-1.6-16 24-32 46.4-64 68.8-96 6.4-8 8-17.6 1.6-27.2-17.6-30.4-32-62.4-40-96-3.2-11.2-9.6-16-19.2-17.6-12.8-1.6-25.6-4.8-38.4-6.4-28.8-4.8-57.6-9.6-86.4-14.4 0-22.4 0-44.8 0-67.2 0-8 3.2-12.8 11.2-12.8 36.8-6.4 75.2-12.8 112-17.6 16-3.2 20.8-6.4 24-22.4 8-32 19.2-62.4 36.8-89.6 8-12.8 6.4-22.4-1.6-33.6-22.4-30.4-44.8-62.4-67.2-92.8-4.8-6.4-4.8-9.6 1.6-16 14.4-12.8 27.2-27.2 41.6-41.6 6.4-6.4 9.6-6.4 16-1.6 32 24 64 44.8 94.4 68.8 9.6 6.4 17.6 8 27.2 1.6 30.4-17.6 62.4-32 96-40 11.2-3.2 16-8 17.6-19.2 3.2-17.6 4.8-33.6 8-51.2 4.8-25.6 8-49.6 12.8-76.8 24 0 46.4 0 68.8 0 8 0 11.2 3.2 12.8 9.6 6.4 38.4 12.8 75.2 17.6 113.6 3.2 14.4 6.4 19.2 20.8 24 32 8 64 20.8 91.2 38.4 11.2 6.4 20.8 6.4 30.4-1.6 32-24 64-44.8 94.4-68.8 6.4-4.8 9.6-4.8 14.4 1.6 12.8 14.4 28.8 28.8 43.2 43.2 6.4 4.8 6.4 9.6 1.6 14.4-24 32-46.4 64-70.4 96-6.4 8-8 17.6-1.6 27.2 17.6 30.4 32 62.4 40 96 3.2 11.2 8 16 19.2 17.6 22.4 3.2 43.2 6.4 65.6 11.2 20.8 3.2 41.6 6.4 62.4 11.2 0 24 0 46.4 0 68.8 0 8-3.2 11.2-9.6 12.8-38.4 6.4-75.2 12.8-113.6 17.6-12.8 1.6-20.8 8-24 20.8-8 33.6-20.8 64-38.4 91.2-6.4 11.2-6.4 19.2 1.6 30.4 24 32 46.4 64 68.8 96 3.2 4.8 3.2 8-1.6 12.8-14.4 14.4-28.8 27.2-43.2 43.2-6.4 6.4-9.6 6.4-16 1.6-32-24-64-44.8-94.4-68.8-9.6-6.4-17.6-8-28.8-1.6-28.8 17.6-59.2 30.4-92.8 38.4-14.4 3.2-17.6 8-20.8 24-6.4 41.6-11.2 83.2-19.2 124.8zM284.8 444.8c1.6 128 104 228.8 232 227.2 123.2-1.6 224-105.6 224-232-1.6-124.8-104-225.6-232-224-123.2 1.6-224 105.6-224 228.8zM513.6 257.6c104 0 188.8 83.2 188.8 185.6 0 105.6-83.2 190.4-188.8 190.4-102.4 0-187.2-83.2-187.2-185.6-1.6-107.2 83.2-190.4 187.2-190.4z" />
<glyph unicode="&#xe90f;" glyph-name="aieicons-location-17" d="M129.6 582.4c3.2 217.6 190.4 393.6 414.4 377.6 169.6-11.2 323.2-153.6 347.2-323.2 19.2-123.2-19.2-228.8-97.6-320-32-40-72-78.4-110.4-113.6-46.4-46.4-91.2-97.6-118.4-156.8-11.2-30.4-20.8-59.2-32-89.6-3.2-12.8-11.2-20.8-24-20.8s-20.8 8-24 20.8c0 3.2-3.2 4.8-3.2 11.2-11.2 48-30.4 97.6-59.2 137.6-20.8 32-46.4 59.2-72 86.4-48 51.2-102.4 97.6-145.6 156.8-46.4 64-75.2 142.4-75.2 233.6zM512 49.6c3.2 3.2 3.2 3.2 3.2 3.2 32 83.2 89.6 148.8 153.6 208 40 38.4 80 75.2 110.4 121.6 54.4 75.2 78.4 161.6 59.2 256-32 177.6-177.6 288-358.4 275.2-259.2-20.8-379.2-300.8-259.2-500.8 32-54.4 72-97.6 118.4-139.2 75.2-65.6 137.6-132.8 172.8-224zM312 576c0 107.2 91.2 201.6 200 201.6 107.2 0 201.6-91.2 201.6-200 0-107.2-94.4-201.6-200-201.6-108.8-1.6-201.6 92.8-201.6 200zM512 729.6c-89.6 0-153.6-64-153.6-150.4s64-150.4 150.4-150.4c89.6 0 153.6 64 153.6 153.6 0 83.2-64 147.2-150.4 147.2z" />
<glyph unicode="&#xe910;" glyph-name="aieicons-openinghours-20" d="M523.2 617.6c0-43.2 0-88 0-131.2 0-8 1.6-12.8 9.6-19.2 24-14.4 30.4-43.2 19.2-67.2-9.6-24-35.2-35.2-62.4-28.8-8 3.2-12.8-1.6-19.2-6.4-30.4-30.4-62.4-62.4-94.4-94.4-8-8-22.4-9.6-28.8-3.2-8 8-6.4 19.2 3.2 28.8 1.6 1.6 3.2 3.2 4.8 4.8 28.8 28.8 59.2 59.2 88 88 6.4 6.4 8 11.2 6.4 19.2-6.4 22.4 3.2 44.8 24 56 8 4.8 9.6 11.2 9.6 19.2 0 86.4 0 172.8 0 259.2 0 22.4 4.8 30.4 19.2 30.4s19.2-8 19.2-28.8c1.6-40 1.6-83.2 1.6-126.4zM0 478.4c3.2 19.2 4.8 40 8 59.2 22.4 123.2 83.2 224 179.2 304 78.4 67.2 169.6 104 273.6 115.2 142.4 12.8 270.4-25.6 379.2-118.4 99.2-83.2 158.4-188.8 177.6-316.8 22.4-152-19.2-286.4-116.8-403.2-83.2-99.2-190.4-156.8-318.4-176-12.8-3.2-27.2-3.2-40-4.8-19.2 0-40 0-59.2 0-8 1.6-12.8 1.6-20.8 3.2-99.2 11.2-187.2 46.4-265.6 108.8-100.8 80-163.2 185.6-187.2 312-3.2 19.2-6.4 40-8 59.2-1.6 17.6-1.6 38.4-1.6 57.6zM988.8 448c0 268.8-212.8 478.4-480 478.4-264-1.6-475.2-212.8-475.2-476.8 0-268.8 212.8-480 480-478.4 265.6 1.6 476.8 214.4 475.2 476.8z" />
<glyph unicode="&#xe911;" glyph-name="aieicons-quickview-14" d="M1022.4 425.6c-81.6-88-177.6-160-286.4-212.8-76.8-36.8-156.8-56-241.6-51.2-80 4.8-156.8 27.2-227.2 60.8-96 48-179.2 113.6-254.4 190.4-14.4 12.8-14.4 17.6-1.6 33.6 84.8 99.2 179.2 180.8 297.6 240 73.6 33.6 148.8 51.2 230.4 49.6 80-4.8 150.4-28.8 219.2-67.2 104-59.2 192-136 267.2-228.8 0 0 1.6 0 1.6-1.6-4.8-6.4-4.8-11.2-4.8-12.8zM982.4 430.4c-1.6 1.6-1.6 4.8-1.6 4.8-73.6 86.4-160 160-259.2 212.8-59.2 32-123.2 49.6-192 54.4-73.6 4.8-139.2-12.8-204.8-44.8-112-51.2-200-129.6-278.4-219.2-4.8-4.8-1.6-6.4 1.6-12.8 84.8-86.4 179.2-156.8 296-198.4 107.2-40 214.4-43.2 323.2-6.4 89.6 28.8 166.4 76.8 236.8 136 27.2 20.8 51.2 48 78.4 73.6zM697.6 448c0-102.4-86.4-187.2-187.2-187.2s-187.2 86.4-187.2 185.6c0 102.4 86.4 187.2 187.2 187.2s187.2-86.4 187.2-185.6zM512 600c-86.4 0-155.2-65.6-155.2-152 0-88 65.6-153.6 152-153.6 89.6 0 155.2 65.6 155.2 152 0 88-65.6 153.6-152 153.6z" />
<glyph unicode="&#xe912;" glyph-name="aieicons-rightarrow-07" d="M272 960c-20.8-19.2-41.6-36.8-67.2-60.8 161.6-150.4 318.4-299.2 481.6-451.2-161.6-152-320-299.2-481.6-451.2 25.6-22.4 44.8-40 67.2-60.8 182.4 171.2 361.6 337.6 548.8 512-187.2 172.8-364.8 340.8-548.8 512zM819.2 448c-185.6 172.8-364.8 340.8-548.8 512-20.8-19.2-41.6-36.8-67.2-60.8 161.6-150.4 318.4-299.2 481.6-451.2-161.6-152-320-299.2-481.6-451.2 25.6-22.4 44.8-40 67.2-60.8 184 169.6 363.2 337.6 548.8 512z" />
<glyph unicode="&#xe913;" glyph-name="aieicons-scrolltotop-12" d="M211.2 638.4c11.2-11.2 22.4-22.4 33.6-41.6 89.6 92.8 176 187.2 265.6 284.8 89.6-97.6 176-190.4 265.6-284.8 14.4 14.4 22.4 25.6 36.8 41.6-100.8 108.8-198.4 212.8-302.4 321.6-97.6-104-198.4-212.8-299.2-321.6zM259.2 294.4h-92.8v33.6h227.2v-33.6h-97.6v-268.8h-36.8v268.8zM379.2 134.4c0 64 41.6 115.2 108.8 115.2s108.8-52.8 108.8-115.2c0-64-41.6-115.2-108.8-115.2-68.8-1.6-108.8 51.2-108.8 115.2zM558.4 134.4c0 44.8-25.6 81.6-70.4 81.6s-70.4-41.6-70.4-81.6c0-44.8 25.6-86.4 70.4-86.4 43.2 3.2 70.4 41.6 70.4 86.4zM648-56v302.4h33.6v-33.6c14.4 22.4 41.6 36.8 75.2 36.8 56 0 97.6-41.6 97.6-115.2 0-70.4-41.6-115.2-97.6-115.2-30.4 0-56 14.4-75.2 36.8v-115.2h-33.6v3.2zM748.8 220.8c-25.6 0-52.8-14.4-64-33.6v-97.6c11.2-19.2 36.8-33.6 64-33.6 44.8 0 70.4 36.8 70.4 86.4 0 40-28.8 78.4-70.4 78.4z" />
<glyph unicode="&#xe914;" glyph-name="aieicons-search-10" d="M1022.4-43.2l-288 278.4c4.8 4.8 9.6 9.6 14.4 16 81.6 99.2 115.2 211.2 97.6 339.2-14.4 107.2-65.6 196.8-147.2 267.2-91.2 78.4-196.8 110.4-316.8 99.2-84.8-8-161.6-40-227.2-97.6-80-68.8-129.6-153.6-148.8-257.6-3.2-16-3.2-33.6-6.4-49.6 0-16 0-33.6 3.2-46.4 1.6-16 3.2-33.6 6.4-49.6 19.2-107.2 72-195.2 155.2-262.4 65.6-52.8 137.6-81.6 220.8-91.2 6.4-1.6 11.2-1.6 17.6-3.2 16 0 33.6 0 49.6 0 11.2 1.6 22.4 1.6 33.6 4.8 88 12.8 164.8 49.6 228.8 110.4l288-278.4 19.2 20.8zM428.8 121.6c-222.4 0-400 177.6-400 404.8-1.6 222.4 176 401.6 395.2 403.2 222.4 1.6 396.8-176 398.4-403.2 0-222.4-176-401.6-393.6-404.8z" />
<glyph unicode="&#xe915;" glyph-name="aieicons-troubleshooting-04" d="M51.2 568c-16 4.8-33.6 8-51.2 14.4 56 172.8 168 297.6 345.6 352 244.8 73.6 444.8-3.2 603.2-193.6 6.4 68.8 12.8 137.6 19.2 208 17.6-1.6 35.2-3.2 56-4.8-9.6-104-19.2-204.8-27.2-308.8-107.2 9.6-211.2 17.6-318.4 27.2 1.6 17.6 3.2 35.2 4.8 52.8 75.2-6.4 150.4-12.8 228.8-19.2-97.6 132.8-227.2 209.6-392 208-240-1.6-390.4-123.2-468.8-336zM969.6 329.6c17.6-4.8 35.2-9.6 54.4-14.4-56-172.8-166.4-297.6-344-352-244.8-73.6-444.8 1.6-604.8 192-6.4-68.8-12.8-137.6-19.2-208-17.6 1.6-35.2 3.2-56 4.8 9.6 102.4 19.2 204.8 27.2 308.8 107.2-9.6 212.8-17.6 318.4-27.2-1.6-17.6-3.2-35.2-4.8-52.8-75.2 6.4-148.8 12.8-224 19.2 49.6-91.2 190.4-200 371.2-209.6 233.6-11.2 427.2 144 481.6 339.2z" />
<glyph unicode="&#xe916;" glyph-name="aieicons-twitter-23" d="M500.8 617.6c-11.2 51.2-6.4 100.8 20.8 145.6 20.8 40 51.2 68.8 91.2 88 76.8 40 180.8 28.8 249.6-43.2 3.2-3.2 6.4 0 8 0 43.2 8 80 22.4 116.8 46.4 3.2 3.2 6.4 3.2 6.4 3.2s0 0 3.2 0c-3.2-11.2-8-22.4-14.4-33.6s-11.2-22.4-20.8-32c-8-8-14.4-20.8-25.6-25.6-8-8-20.8-14.4-28.8-22.4 22.4 3.2 40 6.4 60.8 11.2 20.8 6.4 36.8 11.2 57.6 20.8-6.4-11.2-28.8-40-46.4-60.8-17.6-17.6-36.8-33.6-57.6-48-3.2-3.2 0-6.4 0-8 0-22.4 0-46.4-3.2-65.6-3.2-33.6-8-68.8-17.6-100.8-22.4-91.2-65.6-171.2-126.4-243.2-83.2-97.6-185.6-163.2-312-192-33.6-8-68.8-11.2-102.4-14.4-22.4-3.2-46.4-3.2-65.6-3.2-72 3.2-137.6 20.8-203.2 46.4-28.8 11.2-57.6 25.6-86.4 43.2-3.2 3.2-6.4 3.2-6.4 6.4 0 0 0 0 0 3.2 73.6-8 145.6 3.2 214.4 32 32 14.4 76.8 40 91.2 54.4 0 3.2-3.2 3.2-3.2 3.2-11.2 3.2-20.8 3.2-32 6.4-65.6 11.2-126.4 57.6-152 126.4-3.2 6.4-6.4 11.2-6.4 17.6 11.2-3.2 20.8-3.2 32-3.2s20.8 0 32 3.2c11.2 3.2 20.8 3.2 32 6.4-3.2 3.2-3.2 3.2-6.4 3.2-60.8 14.4-105.6 51.2-137.6 108.8-14.4 28.8-22.4 60.8-22.4 91.2 0 3.2 0 6.4 0 8 11.2-6.4 20.8-8 28.8-11.2s20.8-6.4 28.8-8c11.2-3.2 20.8-6.4 32-3.2-6.4 6.4-8 6.4-11.2 8-3.2 3.2-8 6.4-11.2 8-3.2 3.2-6.4 6.4-8 8-3.2 3.2-6.4 8-8 11.2-3.2 3.2-6.4 8-8 11.2-3.2 3.2-6.4 8-8 11.2-3.2 3.2-6.4 8-6.4 11.2-3.2 6.4-6.4 8-6.4 11.2-3.2 6.4-3.2 8-6.4 14.4s-3.2 8-6.4 14.4c-3.2 6.4-3.2 8-3.2 14.4-3.2 6.4-3.2 8-3.2 14.4s-3.2 8-3.2 14.4c0 6.4 0 8 0 14.4s0 8 0 14.4c0 6.4 0 8 3.2 14.4 0 6.4 3.2 8 3.2 14.4 3.2 6.4 3.2 8 3.2 14.4 3.2 6.4 3.2 8 6.4 14.4s3.2 8 6.4 11.2c3.2 6.4 3.2 8 6.4 11.2 3.2 6.4 6.4 8 6.4 11.2 3.2 0 6.4-3.2 6.4-6.4 17.6-20.8 33.6-40 54.4-57.6 80-73.6 171.2-120 276.8-145.6 28.8-6.4 57.6-8 83.2-11.2-4.8-4.8-1.6-4.8 4.8-8-3.2 0-3.2 0 0 0z" />
<glyph unicode="&#xe917;" glyph-name="aie-icons-leftarrow-06" d="M193.6 448c187.2-174.4 364.8-340.8 547.2-512 22.4 19.2 41.6 38.4 67.2 60.8-161.6 152-320 299.2-481.6 451.2 163.2 153.6 320 300.8 481.6 451.2-25.6 22.4-46.4 41.6-67.2 60.8-184-171.2-363.2-339.2-547.2-512z" />
<glyph unicode="&#xe918;" glyph-name="aie-icons-repairs" d="M816 817.6c24-27.2 40-44.8 64-68.8 27.2 30.4 51.2 57.6 76.8 83.2 30.4 30.4 51.2 24 62.4-17.6 33.6-126.4-81.6-251.2-212.8-227.2-33.6 6.4-54.4-1.6-76.8-25.6-108.8-112-219.2-222.4-331.2-331.2-22.4-22.4-30.4-40-24-73.6 25.6-128-89.6-240-217.6-216-16 3.2-38.4 12.8-43.2 25.6-4.8 9.6 8 32 19.2 43.2 24 25.6 49.6 46.4 78.4 72-27.2 22.4-46.4 38.4-73.6 59.2-20.8-22.4-44.8-49.6-70.4-76.8-30.4-30.4-51.2-24-62.4 19.2-33.6 126.4 81.6 251.2 212.8 227.2 33.6-6.4 52.8 1.6 76.8 25.6 110.4 113.6 220.8 224 332.8 334.4 20.8 19.2 27.2 36.8 22.4 67.2-24 128 86.4 240 216 219.2 17.6-3.2 40-12.8 46.4-25.6 4.8-9.6-9.6-33.6-22.4-46.4-22.4-24-48-44.8-73.6-67.2zM883.2 915.2c-112 43.2-235.2-65.6-195.2-187.2 9.6-28.8 3.2-44.8-16-64-116.8-115.2-233.6-230.4-347.2-348.8-33.6-33.6-60.8-51.2-112-36.8-56 16-107.2-11.2-144-57.6-32-40-38.4-83.2-19.2-136 14.4 9.6 22.4 24 33.6 36.8 70.4 72 72 70.4 139.2-1.6 22.4-24 24-44.8 0-67.2-25.6-22.4-49.6-43.2-80-70.4 115.2-43.2 236.8 67.2 198.4 187.2-9.6 28.8-3.2 44.8 16 64 115.2 113.6 230.4 227.2 342.4 342.4 35.2 36.8 64 59.2 121.6 41.6 56-16 107.2 14.4 142.4 60.8 28.8 38.4 36.8 81.6 16 132.8-14.4-9.6-22.4-24-33.6-36.8-70.4-72-75.2-70.4-142.4 4.8-19.2 20.8-20.8 41.6 0 60.8 24 24 49.6 46.4 80 75.2z" />
</font>
</defs>
</svg>
